{
  "accessors": [
    {
      "bufferView": 2,
      "componentType": 5126,
      "count": 9429,
      "max": [
        0.8889580368995667,
        0.20714913308620453,
        0.0066164773888885975
      ],
      "min": [
        -0.8884603977203369,
        -0.16646184027194977,
        -1.7566174268722534
      ],
      "type": "VEC3"
    },
    {
      "bufferView": 2,
      "byteOffset": 113148,
      "componentType": 5126,
      "count": 9429,
      "max": [
        1.0,
        0.9999980330467224,
        0.9999749660491943
      ],
      "min": [
        -1.0,
        -0.9999944567680359,
        -0.9999951720237732
      ],
      "type": "VEC3"
    },
    {
      "bufferView": 3,
      "componentType": 5126,
      "count": 9429,
      "max": [
        1.0,
        1.0,
        1.0,
        1.0
      ],
      "min": [
        0.003921568859368563,
        0.0,
        0.0,
        1.0
      ],
      "type": "VEC4"
    },
    {
      "bufferView": 1,
      "componentType": 5126,
      "count": 9429,
      "max": [
        0.9932471513748169,
        0.9973210096359253
      ],
      "min": [
        0.007809999864548445,
        0.007809999864548445
      ],
      "type": "VEC2"
    },
    {
      "bufferView": 0,
      "componentType": 5125,
      "count": 37047,
      "type": "SCALAR"
    }
  ],
  "asset": {
    "extras": {
      "author": "Neslihan Çakmak (https://sketchfab.com/neslihancakmak)",
      "license": "CC-BY-4.0 (http://creativecommons.org/licenses/by/4.0/)",
      "source": "https://sketchfab.com/3d-models/policeman-d95e1ac6a2ad47dd8d8c6c0307167b38",
      "title": "policeman"
    },
    "generator": "Sketchfab-12.70.0",
    "version": "2.0"
  },
  "bufferViews": [
    {
      "buffer": 0,
      "byteLength": 148188,
      "name": "floatBufferViews",
      "target": 34963
    },
    {
      "buffer": 0,
      "byteLength": 75432,
      "byteOffset": 148188,
      "byteStride": 8,
      "name": "floatBufferViews",
      "target": 34962
    },
    {
      "buffer": 0,
      "byteLength": 226296,
      "byteOffset": 223620,
      "byteStride": 12,
      "name": "floatBufferViews",
      "target": 34962
    },
    {
      "buffer": 0,
      "byteLength": 150864,
      "byteOffset": 449916,
      "byteStride": 16,
      "name": "floatBufferViews",
      "target": 34962
    }
  ],
  "buffers": [
    {
      "byteLength": 600780,
      "uri": "scene.bin"
    }
  ],
  "images": [
    {
      "uri": "textures/police-texture.001_baseColor.png"
    }
  ],
  "materials": [
    {
      "doubleSided": true,
      "name": "police-texture.001",
      "pbrMetallicRoughness": {
        "baseColorTexture": {
          "index": 0
        },
        "metallicFactor": 0.0,
        "roughnessFactor": 0.8211145618000169
      }
    }
  ],
  "meshes": [
    {
      "name": "police-man.002_police-texture.001_0",
      "primitives": [
        {
          "attributes": {
            "COLOR_0": 2,
            "NORMAL": 1,
            "POSITION": 0,
            "TEXCOORD_0": 3
          },
          "indices": 4,
          "material": 0,
          "mode": 4
        }
      ]
    }
  ],
  "nodes": [
    {
      "children": [
        1
      ],
      "matrix": [
        1.0,
        0.0,
        0.0,
        0.0,
        0.0,
        2.220446049250313e-16,
        -1.0,
        0.0,
        0.0,
        1.0,
        2.220446049250313e-16,
        0.0,
        0.0,
        0.0,
        0.0,
        1.0
      ],
      "name": "Sketchfab_model"
    },
    {
      "children": [
        2
      ],
      "matrix": [
        1.0,
        0.0,
        0.0,
        0.0,
        0.0,
        0.0,
        1.0,
        0.0,
        0.0,
        -1.0,
        0.0,
        0.0,
        0.0,
        0.0,
        0.0,
        1.0
      ],
      "name": "5e3d77e66ea94db5ad6e3d6b5d80a77a.fbx"
    },
    {
      "children": [
        3
      ],
      "name": "RootNode"
    },
    {
      "children": [
        4
      ],
      "matrix": [
        1.0,
        2.910387209009714e-11,
        -2.3283067140944524e-10,
        0.0,
        2.328306622732751e-10,
        -1.6292066968100218e-07,
        0.999999940395342,
        0.0,
        2.910383242244187e-11,
        -0.999999940395342,
        -1.6292066968100218e-07,
        0.0,
        -4.381945473141968e-09,
        8.731163014807919e-11,
        -8.549250196665525e-10,
        1.0
      ],
      "name": "police-man.002"
    },
    {
      "mesh": 0,
      "name": "police-man.002_police-texture.001_0"
    }
  ],
  "samplers": [
    {
      "magFilter": 9729,
      "minFilter": 9987,
      "wrapS": 10497,
      "wrapT": 10497
    }
  ],
  "scene": 0,
  "scenes": [
    {
      "name": "Sketchfab_Scene",
      "nodes": [
        0
      ]
    }
  ],
  "textures": [
    {
      "sampler": 0,
      "source": 0
    }
  ]
}
